<?xml version="1.0" encoding="UTF-8" standalone="no"?>
<!-- Created with Inkscape (http://www.inkscape.org/) -->

<svg
   width="127.99994mm"
   height="127.99994mm"
   viewBox="0 0 127.99994 127.99994"
   version="1.1"
   id="svg5"
   xml:space="preserve"
   inkscape:version="1.2.1 (9c6d41e410, 2022-07-14)"
   sodipodi:docname="Calculator.svg"
   inkscape:export-filename="calculator.webp"
   inkscape:export-xdpi="96"
   inkscape:export-ydpi="96"
   xmlns:inkscape="http://www.inkscape.org/namespaces/inkscape"
   xmlns:sodipodi="http://sodipodi.sourceforge.net/DTD/sodipodi-0.dtd"
   xmlns="http://www.w3.org/2000/svg"
   xmlns:svg="http://www.w3.org/2000/svg"><sodipodi:namedview
     id="namedview7"
     pagecolor="#ffffff"
     bordercolor="#000000"
     borderopacity="0.25"
     inkscape:showpageshadow="2"
     inkscape:pageopacity="0.0"
     inkscape:pagecheckerboard="0"
     inkscape:deskcolor="#d1d1d1"
     inkscape:document-units="mm"
     showgrid="false"
     showguides="true"
     inkscape:zoom="1.0544998"
     inkscape:cx="266.95122"
     inkscape:cy="238.97587"
     inkscape:window-width="1920"
     inkscape:window-height="1017"
     inkscape:window-x="1912"
     inkscape:window-y="270"
     inkscape:window-maximized="1"
     inkscape:current-layer="layer1" /><defs
     id="defs2"><inkscape:path-effect
       effect="fillet_chamfer"
       id="path-effect9620"
       is_visible="true"
       lpeversion="1"
       nodesatellites_param="F,0,0,1,0,17.991667,0,1 @ F,0,0,1,0,17.991667,0,1 @ F,0,0,1,0,17.991667,0,1 @ F,0,0,1,0,17.991667,0,1"
       unit="px"
       method="auto"
       mode="F"
       radius="68"
       chamfer_steps="1"
       flexible="false"
       use_knot_distance="true"
       apply_no_radius="true"
       apply_with_radius="true"
       only_selected="false"
       hide_knots="false" /></defs><g
     inkscape:label="Layer 1"
     inkscape:groupmode="layer"
     id="layer1"
     transform="translate(-37.88916,-61.046403)"><path
       id="rect1992"
       style="fill:#5c7f67;fill-opacity:1;stroke-width:0.190104;stroke-dasharray:none"
       d="M 165.8891 104.80187 L 133.88485 81.549544 L 136.13536 86.683598 L 136.27695 161.40979 L 131.74493 168.34115 L 70.159542 168.69203 L 98.174886 189.04634 L 101.15403 189.04634 L 147.89743 189.04634 A 17.991667 17.991667 0 0 0 165.8891 171.05468 L 165.8891 118.76484 L 165.8891 104.80187 z " /><path
       id="path79099"
       style="fill:#8bab87;fill-opacity:1;stroke-width:0.190104;stroke-dasharray:none"
       d="M 55.880827 61.046403 A 17.991667 17.991667 0 0 0 37.88916 79.03807 L 37.88916 171.05468 A 17.991667 17.991667 0 0 0 55.880827 189.04634 L 98.174886 189.04634 L 70.159542 168.69203 L 131.74493 168.34115 L 136.27695 161.40979 L 136.13536 86.683598 L 133.88485 81.549544 L 165.8891 104.80187 L 165.8891 79.03807 A 17.991667 17.991667 0 0 0 147.89743 61.046403 L 55.880827 61.046403 z " /><path
       style="fill:#ecf4e7;fill-opacity:1;stroke-width:0.143399;stroke-dasharray:none"
       d="m 73.505202,170.2057 c -3.94247,-1.03734 -6.838742,-4.06038 -7.721426,-8.05933 -0.259751,-1.1768 -0.287102,-5.46291 -0.240316,-37.65658 l 0.05279,-36.328627 0.424038,-1.246779 c 1.078771,-3.171828 3.694102,-5.78717 6.865946,-6.865947 l 1.24677,-0.424032 27.222766,-0.05331 c 30.22569,-0.05915 28.63236,-0.120149 31.2547,1.195855 2.35238,1.18044 4.39851,3.628216 5.22276,6.247982 l 0.42029,1.335811 v 36.708027 36.70806 l -0.42029,1.3358 c -1.01195,3.2164 -3.62021,5.86145 -6.86969,6.96663 l -1.24676,0.42403 -27.41249,0.0386 c -26.507974,0.0372 -27.458216,0.0266 -28.799097,-0.32628 z m 57.475158,-3.45609 c 1.7265,-0.8533 2.80203,-1.95188 3.63755,-3.71549 l 0.60031,-1.26717 V 125.04908 88.331185 l -0.70849,-1.433545 c -0.85331,-1.726577 -1.95181,-2.80205 -3.7155,-3.637612 l -1.26715,-0.600317 H 101.92489 74.322718 l -1.267159,0.600317 c -1.763678,0.835562 -2.862193,1.911035 -3.715513,3.637612 l -0.708497,1.433545 v 36.717895 36.71787 l 0.600327,1.26717 c 0.330178,0.69692 0.948916,1.64531 1.374968,2.10754 0.837655,0.90876 2.558579,1.92241 3.73821,2.2019 0.433463,0.1026 11.941268,0.16216 27.969166,0.1445 l 27.23266,-0.0299 z m -56.373084,-2.47995 c -0.931116,-0.29348 -2.519074,-1.9378 -2.804584,-2.90412 -0.312191,-1.05663 -0.312191,-7.81554 0,-8.87215 0.307874,-1.04204 1.879424,-2.61358 2.921446,-2.92147 1.081818,-0.31962 10.82562,-0.31962 11.907438,0 1.042021,0.30789 2.613576,1.87943 2.921447,2.92147 0.312189,1.05661 0.312189,7.81552 0,8.87215 -0.307871,1.04202 -1.879426,2.61357 -2.921447,2.92144 -1.01758,0.30064 -11.061389,0.28619 -12.0243,-0.0163 z m 11.675519,-3.25292 c 0.461866,-0.46185 0.465642,-0.49501 0.465642,-4.08728 0,-3.59228 -0.0039,-3.62544 -0.465642,-4.0873 l -0.465639,-0.46564 h -5.139298 -5.139301 l -0.465638,0.46564 c -0.461867,0.46186 -0.465643,0.49502 -0.465643,4.0873 0,3.59227 0.0039,3.62543 0.465643,4.08728 l 0.465638,0.46567 h 5.139301 5.139298 z m 9.571512,3.25292 c -0.931116,-0.29348 -2.519081,-1.9378 -2.804579,-2.90412 -0.312188,-1.05663 -0.312188,-7.81554 0,-8.87215 0.307865,-1.04204 1.879422,-2.61358 2.921446,-2.92147 1.081819,-0.31962 10.825626,-0.31962 11.907436,0 0.49197,0.1453 1.13412,0.58402 1.73579,1.18567 0.60167,0.60167 1.04031,1.24383 1.18567,1.7358 0.31218,1.05661 0.31218,7.81552 0,8.87215 -0.30789,1.04202 -1.87943,2.61357 -2.92146,2.92144 -1.01758,0.30064 -11.061398,0.28619 -12.024303,-0.0163 z m 11.675523,-3.25292 c 0.46188,-0.46185 0.46563,-0.49501 0.46563,-4.08728 0,-3.59228 -0.005,-3.62544 -0.46563,-4.0873 l -0.46564,-0.46564 h -5.1393 -5.1393 l -0.465636,0.46564 c -0.46187,0.46186 -0.465647,0.49502 -0.465647,4.0873 0,3.59227 0.0045,3.62543 0.465647,4.08728 l 0.465636,0.46567 h 5.1393 5.1393 z m 9.57152,3.25292 c -0.9311,-0.29348 -2.51907,-1.9378 -2.80458,-2.90412 -0.33042,-1.11834 -0.33042,-25.96556 0,-27.0839 0.30788,-1.04203 1.8794,-2.61357 2.92144,-2.92145 1.08183,-0.31961 10.82562,-0.31961 11.90745,0 1.04203,0.30788 2.61356,1.87942 2.92144,2.92145 0.33042,1.11834 0.33042,25.96556 0,27.0839 -0.30788,1.04202 -1.87941,2.61357 -2.92144,2.92144 -1.0176,0.30064 -11.06141,0.28619 -12.02431,-0.0163 z m 11.67552,-3.25292 0.46565,-0.46563 V 147.8236 135.09605 l -0.46565,-0.46563 -0.46565,-0.46564 h -5.1393 -5.13929 l -0.46564,0.46564 -0.46564,0.46563 v 12.72755 12.72751 l 0.46564,0.46563 0.46564,0.46567 h 5.13929 5.1393 z M 74.607276,146.05793 c -0.931116,-0.29348 -2.519074,-1.93783 -2.804584,-2.90414 -0.312191,-1.05662 -0.312191,-7.81555 0,-8.87215 0.307874,-1.04203 1.879424,-2.61357 2.921446,-2.92145 1.081818,-0.31961 10.82562,-0.31961 11.907438,0 1.042021,0.30788 2.613576,1.87942 2.921447,2.92145 0.312189,1.0566 0.312189,7.81553 0,8.87215 -0.307871,1.04201 -1.879426,2.61357 -2.921447,2.92144 -1.01758,0.30065 -11.061389,0.2862 -12.0243,-0.0163 z m 11.675519,-3.25292 c 0.461866,-0.46185 0.465642,-0.49504 0.465642,-4.08728 0,-3.5923 -0.0039,-3.62547 -0.465642,-4.08731 l -0.465639,-0.46564 h -5.139298 -5.139301 l -0.465638,0.46564 c -0.461867,0.46184 -0.465643,0.49501 -0.465643,4.08731 0,3.59224 0.0039,3.62543 0.465643,4.08728 l 0.465638,0.46565 h 5.139301 5.139298 z m 9.571512,3.25292 c -0.931116,-0.29348 -2.519081,-1.93783 -2.804579,-2.90414 -0.312188,-1.05662 -0.312188,-7.81555 0,-8.87215 0.307865,-1.04203 1.879422,-2.61357 2.921446,-2.92145 1.081819,-0.31961 10.825626,-0.31961 11.907436,0 0.49197,0.14531 1.13412,0.58402 1.73579,1.18565 0.60167,0.60167 1.04031,1.24386 1.18567,1.7358 0.31218,1.0566 0.31218,7.81553 0,8.87215 -0.30789,1.04201 -1.87943,2.61357 -2.92146,2.92144 -1.01758,0.30065 -11.061398,0.2862 -12.024303,-0.0163 z m 11.675523,-3.25292 c 0.46188,-0.46185 0.46563,-0.49504 0.46563,-4.08728 0,-3.5923 -0.005,-3.62547 -0.46563,-4.08731 l -0.46564,-0.46564 h -5.1393 -5.1393 l -0.465636,0.46564 c -0.46187,0.46184 -0.465647,0.49501 -0.465647,4.08731 0,3.59224 0.0045,3.62543 0.465647,4.08728 l 0.465636,0.46565 h 5.1393 5.1393 z M 74.607276,127.84619 c -0.931116,-0.29349 -2.519074,-1.93781 -2.804584,-2.90415 -0.312191,-1.05661 -0.312191,-7.81553 0,-8.87214 0.307874,-1.04201 1.879424,-2.61356 2.921446,-2.92144 1.081818,-0.31964 10.82562,-0.31964 11.907438,0 1.042021,0.30788 2.613576,1.87943 2.921447,2.92144 0.312189,1.05661 0.312189,7.81553 0,8.87214 -0.145357,0.49195 -0.584005,1.13415 -1.18566,1.73579 -0.601656,0.60166 -1.243837,1.0403 -1.735787,1.18567 -1.01758,0.30065 -11.061389,0.28619 -12.0243,-0.0163 z m 11.675519,-3.25291 c 0.461866,-0.4619 0.465642,-0.49502 0.465642,-4.08731 0,-3.59226 -0.0039,-3.62543 -0.465642,-4.0873 l -0.465639,-0.46563 h -5.139298 -5.139301 l -0.465638,0.46563 c -0.461867,0.46187 -0.465643,0.49504 -0.465643,4.0873 0,3.59229 0.0039,3.62541 0.465643,4.08731 l 0.465638,0.46562 h 5.139301 5.139298 z m 9.571512,3.25291 c -0.931116,-0.29349 -2.519081,-1.93781 -2.804579,-2.90415 -0.312188,-1.05661 -0.312188,-7.81553 0,-8.87214 0.307865,-1.04201 1.879422,-2.61356 2.921446,-2.92144 1.081819,-0.31964 10.825626,-0.31964 11.907436,0 0.49197,0.14528 1.13412,0.58399 1.73579,1.18566 0.60167,0.60165 1.04031,1.24383 1.18567,1.73578 0.31218,1.05661 0.31218,7.81553 0,8.87214 -0.30789,1.04204 -1.87943,2.61359 -2.92146,2.92146 -1.01758,0.30065 -11.061398,0.28619 -12.024303,-0.0163 z m 11.675523,-3.25291 c 0.46188,-0.4619 0.46563,-0.49502 0.46563,-4.08731 0,-3.59226 -0.005,-3.62543 -0.46563,-4.0873 l -0.46564,-0.46563 h -5.1393 -5.1393 l -0.465636,0.46563 c -0.46187,0.46187 -0.465647,0.49504 -0.465647,4.0873 0,3.59229 0.0045,3.62541 0.465647,4.08731 l 0.465636,0.46562 h 5.1393 5.1393 z m 9.57152,3.25291 c -0.9311,-0.29349 -2.51907,-1.93781 -2.80458,-2.90415 -0.14611,-0.49458 -0.23071,-2.12072 -0.23071,-4.43607 0,-2.31536 0.0844,-3.94146 0.23071,-4.43607 0.30788,-1.04201 1.8794,-2.61356 2.92144,-2.92144 1.08183,-0.31964 10.82562,-0.31964 11.90745,0 0.49193,0.14528 1.13413,0.58399 1.73577,1.18566 0.60168,0.60165 1.04031,1.24383 1.18567,1.73578 0.31217,1.05661 0.31217,7.81553 0,8.87214 -0.30788,1.04204 -1.87941,2.61359 -2.92144,2.92146 -1.0176,0.30065 -11.06141,0.28619 -12.02431,-0.0163 z m 11.67552,-3.25291 c 0.46187,-0.4619 0.46565,-0.49502 0.46565,-4.08731 0,-3.59226 -0.005,-3.62543 -0.46565,-4.0873 l -0.46565,-0.46563 h -5.1393 -5.13929 l -0.46564,0.46563 c -0.46187,0.46187 -0.46564,0.49504 -0.46564,4.0873 0,3.59229 0.005,3.62541 0.46564,4.08731 l 0.46564,0.46562 h 5.13929 5.1393 z M 74.607276,106.59914 c -0.931116,-0.29347 -2.519074,-1.93782 -2.804584,-2.90414 -0.323735,-1.09567 -0.323735,-13.847015 0,-14.942723 0.307874,-1.042019 1.879424,-2.613565 2.921446,-2.921441 1.131288,-0.334243 53.270222,-0.334243 54.401522,0 1.04203,0.307876 2.61356,1.879422 2.92144,2.921441 0.32373,1.095708 0.32373,13.847053 0,14.942723 -0.30788,1.04203 -1.87941,2.6136 -2.92144,2.92146 -1.06575,0.31489 -53.517299,0.29823 -54.518384,-0.0163 z m 54.169594,-3.25291 0.46565,-0.46565 v -6.65693 -6.656957 l -0.46565,-0.465613 -0.46565,-0.465636 H 101.92489 75.538557 l -0.465638,0.465636 -0.465643,0.465613 v 6.656957 6.65693 l 0.465643,0.46565 0.465638,0.46563 h 26.386333 26.38633 z"
       id="path587"
       sodipodi:nodetypes="ssscsscssscccsscssssscccsscccsscccsssscscsssssssccssscccssscccscssssssssccssccccssscccscsssssssccccccccccccccccccccsssssssccssscccssccccscssssssssccssccccssscccscssssssssccssccccssccccscssssssssccssccccssccccscsssssssssccssccccssccccsssssssssssccccccccccccccccc" /></g></svg>
