<?xml version="1.0" encoding="UTF-8" standalone="no"?>
<!-- Created with Inkscape (http://www.inkscape.org/) -->

<svg
   version="1.1"
   id="svg36449"
   width="128"
   height="128"
   viewBox="0 0 128 128"
   sodipodi:docname="Guide.svg"
   inkscape:version="1.2.1 (9c6d41e410, 2022-07-14)"
   xmlns:inkscape="http://www.inkscape.org/namespaces/inkscape"
   xmlns:sodipodi="http://sodipodi.sourceforge.net/DTD/sodipodi-0.dtd"
   xmlns="http://www.w3.org/2000/svg"
   xmlns:svg="http://www.w3.org/2000/svg">
  <defs
     id="defs36453" />
  <sodipodi:namedview
     id="namedview36451"
     pagecolor="#ffffff"
     bordercolor="#000000"
     borderopacity="0.25"
     inkscape:showpageshadow="2"
     inkscape:pageopacity="0.0"
     inkscape:pagecheckerboard="0"
     inkscape:deskcolor="#d1d1d1"
     showgrid="false"
     showguides="true"
     inkscape:zoom="2.8284271"
     inkscape:cx="32.350135"
     inkscape:cy="42.072853"
     inkscape:window-width="1920"
     inkscape:window-height="1017"
     inkscape:window-x="1912"
     inkscape:window-y="270"
     inkscape:window-maximized="1"
     inkscape:current-layer="g36455" />
  <g
     inkscape:groupmode="layer"
     inkscape:label="Image"
     id="g36455"
     transform="translate(-238.52148,-237.33398)">
    <path
       id="rect1992"
       style="fill:#5c7f67;fill-opacity:1;stroke-width:0.190104;stroke-dasharray:none"
       d="M 366.37695 280.27734 L 332.9414 255.98437 L 332.55273 338.0371 L 289.7246 338.45898 L 289.6621 345.8496 L 284.88085 343.4121 L 283.54296 344.35156 L 280.89648 341.9121 L 279.35351 339.58984 L 274.43554 338.04882 L 283.32226 344.50585 L 280.0332 346.8164 L 305.52148 365.33398 L 316.3496 365.33398 L 348.38476 365.33398 C 358.32166 365.33426 366.37723 357.27869 366.37695 347.34179 L 366.37695 295.05273 L 366.37695 289.19726 L 366.37695 280.27734 z " />
    <path
       id="path71822"
       style="fill:#8bab87;fill-opacity:1;stroke-width:0.190104;stroke-dasharray:none"
       d="M 256.36914 237.33398 A 17.991676 17.991676 0 0 0 238.37695 255.32421 L 238.37695 347.34179 A 17.991676 17.991676 0 0 0 256.36914 365.33398 L 301.64257 365.33398 L 305.52148 365.33398 L 280.0332 346.8164 L 283.32226 344.50585 L 274.43554 338.04882 L 279.35351 339.58984 L 280.89648 341.9121 L 283.54296 344.35156 L 284.88085 343.4121 L 289.6621 345.8496 L 289.7246 338.45898 L 332.55273 338.0371 L 332.9414 255.98437 L 366.37695 280.27734 L 366.37695 255.32421 A 17.991676 17.991676 0 0 0 348.38476 237.33398 L 256.36914 237.33398 z " />
    <path
       style="fill:#ecf4e7;fill-opacity:1;stroke-width:0.179029"
       d="m 279.7937,346.62126 c -0.43473,-0.43474 -0.43944,-0.4747 -0.43944,-3.73512 v -3.29569 l -1.18453,-0.0951 c -2.40664,-0.19318 -4.96926,-1.91898 -6.403,-4.31212 -1.25885,-2.10122 -1.18494,0.24385 -1.18494,-37.59048 0,-22.31428 0.0628,-34.42329 0.18175,-35.05452 0.50437,-2.67606 2.31849,-5.03141 4.7809,-6.20722 l 1.39292,-0.66512 27.57061,-0.0471 c 20.27539,-0.0346 27.70109,0.007 28.06376,0.15634 0.69455,0.28655 1.51694,1.28278 1.73865,2.10612 0.12886,0.47857 0.17347,10.7575 0.14181,32.66893 -0.044,30.41697 -0.0205,32.0274 -0.32469,32.33155 -0.30336,0.30338 -1.78644,0.28303 -28.32793,0.36798 l -27.96706,0.0895 -0.98467,0.46447 c -1.25568,0.5923 -2.43432,1.77094 -3.02662,3.02662 -0.42583,0.90277 -0.46438,1.17824 -0.46351,3.31205 7.2e-4,2.21662 0.026,2.37674 0.52493,3.36406 0.90733,1.79512 2.55336,3.01676 4.46963,3.31726 l 1.00199,0.15714 v -1.67369 -1.67368 h -1.17258 c -2.12058,0 -3.01429,-0.97127 -2.03696,-2.21373 l 0.37105,-0.47172 h 24.87216 c 24.63346,0 24.87561,0.003 25.23023,0.35806 0.48254,0.48255 0.47296,1.45178 -0.0188,1.89683 -0.36442,0.32982 -0.95674,0.3426 -17.99919,0.38839 l -17.62238,0.0473 0.0514,1.65344 0.0514,1.65344 19.94731,0.0455 c 17.63966,0.0402 19.99559,0.014 20.36464,-0.22791 l 0.41735,-0.27346 v -4.29259 c 0,-4.05388 -0.18614,-9.216 0.15203,-9.55415 0.48264,-0.48264 1.68877,-0.33904 2.13377,0.1529 0.31671,0.35011 0.31013,5.47419 0.31013,9.73766 0,5.22478 -0.0735,5.56271 -1.40234,6.44211 l -0.71977,0.47635 -20.60157,0.0895 -20.60155,0.0895 -0.0895,3.37306 c -0.087,3.27755 -0.10152,3.38274 -0.51218,3.71487 -0.23245,0.18799 -0.60345,0.34181 -0.82444,0.34181 -0.221,0 -1.29168,-0.64451 -2.3793,-1.43225 -1.08763,-0.78772 -2.03095,-1.43224 -2.09628,-1.43224 -0.0653,0 -1.00938,0.64452 -2.09793,1.43224 -1.17871,0.853 -2.15485,1.43225 -2.41356,1.43225 -0.23891,0 -0.63214,-0.19775 -0.87383,-0.43944 z m 3.66124,-4.57341 c 0.77563,-0.56414 1.41468,-0.89514 1.72819,-0.89514 0.31403,0 0.94987,0.33009 1.72434,0.89514 0.67477,0.49234 1.26544,0.89516 1.31258,0.89516 0.0471,0 0.0857,-2.09466 0.0857,-4.65479 v -4.65477 h -3.13302 -3.13303 v 4.65477 c 0,2.56013 0.0415,4.65479 0.0923,4.65479 0.0507,0 0.64607,-0.40282 1.32296,-0.89516 z m -8.48692,-20.23255 c 2.08098,-1.25157 -0.2634,-1.15634 29.76373,-1.20909 l 27.07828,-0.0476 v -31.03698 c 0,-26.03865 -0.0394,-31.06967 -0.24491,-31.24019 -0.18089,-0.15012 -7.23629,-0.19096 -26.98876,-0.1562 l -26.74385,0.0471 -0.98467,0.46498 c -1.28779,0.60812 -2.42648,1.73995 -3.01641,2.99829 l -0.47467,1.01248 -0.0469,30.14498 -0.0469,30.14497 0.40487,-0.29218 c 0.22268,-0.1607 0.80769,-0.53445 1.30002,-0.83057 z m 8.90476,-14.90856 c -0.97637,-0.36863 -1.7761,-1.13954 -2.30993,-2.22666 -0.48542,-0.98854 -0.50756,-1.14463 -0.50228,-3.54056 0.005,-2.16027 0.0574,-2.61899 0.38135,-3.32157 0.72707,-1.57698 2.01165,-2.46494 3.79791,-2.62533 1.8743,-0.16827 3.40502,0.54688 4.09535,1.91336 0.5532,1.09502 0.53331,1.75492 -0.0597,1.98039 -0.76819,0.29206 -1.55188,-0.0218 -1.90461,-0.76291 -0.40747,-0.85608 -0.95255,-1.21211 -1.85577,-1.21211 -1.57415,0 -2.3199,1.33579 -2.29881,4.11769 0.0182,2.39879 0.56144,3.58006 1.80424,3.92323 1.33691,0.36914 2.54556,-0.45965 2.70263,-1.85324 l 0.092,-0.81678 h -0.97214 c -1.14581,0 -1.40181,-0.19921 -1.40181,-1.09084 0,-0.8145 0.14389,-0.87849 1.97554,-0.87849 2.33528,0 2.61729,0.28934 2.45758,2.52146 -0.11318,1.58221 -0.69214,2.74625 -1.72796,3.4744 -0.68268,0.47991 -0.926,0.54308 -2.22809,0.57856 -0.82475,0.0225 -1.71616,-0.0562 -2.04558,-0.1806 z m 10.05164,-0.11226 c -0.80605,-0.36604 -1.51677,-1.19748 -1.83431,-2.14587 -0.12951,-0.38683 -0.20376,-2.15746 -0.20376,-4.85941 0,-4.68696 -0.0566,-4.46819 1.15642,-4.46819 0.32452,0 0.67614,0.1038 0.78136,0.23053 0.12,0.14459 0.21161,1.78547 0.24572,4.40123 l 0.0544,4.17071 0.58468,0.52209 c 1.14081,1.01871 2.85979,0.55773 3.25729,-0.87354 0.10129,-0.36476 0.18465,-2.36657 0.1852,-4.44845 0.001,-4.1658 -0.0455,-4.00257 1.14353,-4.00257 0.31689,0 0.67283,0.0967 0.79099,0.21484 0.33626,0.33626 0.29528,7.86545 -0.049,9.01746 -0.52037,1.74083 -1.82766,2.57581 -4.03281,2.57581 -0.92923,0 -1.56966,-0.103 -2.07963,-0.33464 z m 8.73954,0.12767 c -0.30711,-0.30709 -0.30711,-11.0792 0,-11.3863 0.11815,-0.11816 0.55842,-0.21484 0.97836,-0.21484 0.57166,0 0.81011,0.087 0.94886,0.34629 0.11573,0.21626 0.18533,2.32913 0.18533,5.62666 0,4.56162 -0.0383,5.31866 -0.28134,5.56169 -0.3316,0.3316 -1.52284,0.37486 -1.83121,0.0665 z m 4.61897,-0.32226 c -0.34126,-0.34125 -0.35807,-0.59676 -0.35807,-5.44741 v -5.08936 l 0.47173,-0.37105 c 0.4092,-0.32187 0.72086,-0.37106 2.35138,-0.37106 1.0338,0 2.18657,0.0919 2.56172,0.20435 2.08541,0.62481 3.40456,3.28119 3.14684,6.33689 -0.20108,2.3843 -1.01982,3.90458 -2.50004,4.6422 -0.82563,0.41144 -1.11439,0.45351 -3.11278,0.45351 -1.96402,0 -2.24152,-0.0388 -2.56078,-0.35807 z m 4.81957,-2.07433 c 1.61092,-1.35549 1.37135,-6.07972 -0.3535,-6.97168 -0.35663,-0.18442 -0.89422,-0.26256 -1.56476,-0.22748 l -1.0215,0.0535 -0.0484,3.80438 -0.0484,3.80439 h 1.24302 c 1.0758,0 1.31708,-0.0623 1.79337,-0.46307 z m 5.45764,2.05554 c -0.31858,-0.35203 -0.34105,-0.71287 -0.34105,-5.47622 v -5.09939 l 0.42265,-0.34224 c 0.376,-0.30446 0.73267,-0.34224 3.2315,-0.34224 3.06419,0 3.2385,0.053 3.2385,0.98467 0,0.89823 -0.22314,0.98467 -2.54222,0.98467 h -2.11255 v 1.33667 1.33666 l 1.91,0.0507 1.91001,0.0509 0.1696,0.50984 c 0.11294,0.33961 0.10414,0.65345 -0.0263,0.93991 -0.1888,0.4144 -0.26456,0.43006 -2.0796,0.43006 h -1.88364 v 1.52176 1.52175 h 1.98109 c 2.25192,0 2.67368,0.13989 2.67368,0.8868 0,1.10224 0.0584,1.08253 -3.21395,1.08253 -2.81906,0 -3.01681,-0.0223 -3.33765,-0.37686 z M 286.0361,286.01298 c -3.59876,-0.94329 -6.43443,-3.27603 -7.94529,-6.53611 -0.92677,-1.99974 -1.1549,-3.08114 -1.13302,-5.3709 0.0153,-1.6045 0.10551,-2.23466 0.48694,-3.40156 1.91736,-5.8662 7.81685,-9.41274 13.73227,-8.25533 2.07414,0.40582 4.41803,1.57241 5.91469,2.94384 l 1.16354,1.06617 0.73974,-0.69001 c 0.9507,-0.88683 1.54206,-1.0435 2.17177,-0.57538 0.34218,0.25438 0.49289,0.54649 0.53392,1.03493 0.0568,0.67616 0.0172,0.72055 -6.18193,6.91962 -5.83062,5.83063 -6.28026,6.2391 -6.86782,6.2391 -0.57311,0 -0.86947,-0.24258 -3.3514,-2.74322 -1.72678,-1.73979 -2.72271,-2.87698 -2.72271,-3.10888 0,-0.67046 0.67479,-1.30909 1.38321,-1.30909 0.57554,0 0.8448,0.20097 2.63314,1.9654 l 1.99205,1.9654 3.8991,-3.90212 3.89909,-3.90211 -0.81716,-0.75325 c -2.05061,-1.89018 -3.94942,-2.62692 -6.72338,-2.60868 -1.58559,0.0103 -2.06925,0.0861 -3.09012,0.48351 -2.7555,1.07267 -4.7287,3.10439 -5.70776,5.87701 -0.5344,1.51341 -0.5746,4.25084 -0.0838,5.70864 1.91176,5.67876 8.03324,8.23758 13.32107,5.5683 1.30152,-0.65701 2.68188,-1.88927 3.50437,-3.12841 0.78133,-1.17713 1.54484,-3.38986 1.54484,-4.47711 0,-1.01351 0.27109,-1.6253 0.83381,-1.88169 0.64581,-0.29425 0.92484,-0.2467 1.41221,0.24067 0.35706,0.35706 0.43885,0.61715 0.43632,1.38747 -0.005,1.49739 -0.46213,3.27991 -1.26883,4.94654 -1.04761,2.16436 -3.17948,4.29491 -5.35217,5.34888 -2.69065,1.30522 -5.69465,1.64614 -8.35667,0.94837 z m 27.24433,0.0151 c -1.72116,-0.47404 -2.48709,-0.81797 -3.88742,-1.74564 -3.191,-2.11391 -5.33262,-6.13832 -5.33262,-10.02071 0,-2.40778 1.00272,-5.27505 2.56615,-7.33792 2.67237,-3.52602 7.40684,-5.32703 11.76302,-4.47471 5.49925,1.07599 9.51538,5.67996 9.79791,11.23204 0.1789,3.51555 -0.97692,6.54831 -3.44368,9.03586 -2.42838,2.44885 -4.72394,3.45751 -8.1513,3.58166 -1.65026,0.0598 -2.30756,0.006 -3.31206,-0.27058 z m 5.15549,-2.61057 c 4.19134,-1.09171 7.10806,-4.83913 7.10806,-9.13248 0,-4.08968 -2.60547,-7.61835 -6.6241,-8.97123 -1.45997,-0.4915 -4.19564,-0.45882 -5.72896,0.0685 -2.69248,0.92586 -4.99738,3.21257 -5.90907,5.8624 -1.7523,5.09317 1.26007,10.75637 6.46626,12.1565 1.26924,0.34134 3.41146,0.34882 4.68781,0.0163 z m -7.92136,-3.09163 c -0.24808,-0.20088 -0.39476,-0.5298 -0.40555,-0.90948 -0.015,-0.52917 0.21797,-0.83028 2.11154,-2.72882 l 2.12847,-2.13401 -2.12847,-2.13402 c -1.89357,-1.89853 -2.12657,-2.19965 -2.11154,-2.72881 0.0206,-0.72308 0.56892,-1.22419 1.33961,-1.22419 0.456,0 0.89359,0.34388 2.669,2.09742 l 2.12358,2.09743 2.1029,-2.09743 c 1.79642,-1.79173 2.18542,-2.09742 2.66907,-2.09742 0.3984,0 0.67612,0.13978 0.93722,0.47172 0.69602,0.88483 0.53749,1.2064 -1.72302,3.49511 l -2.09409,2.12019 2.09409,2.12019 c 2.26051,2.28871 2.41904,2.61027 1.72302,3.49511 -0.2611,0.33194 -0.53882,0.47171 -0.93722,0.47171 -0.48365,0 -0.87265,-0.30568 -2.66907,-2.09742 l -2.1029,-2.09742 -2.12358,2.09742 c -1.77541,1.75355 -2.213,2.09742 -2.669,2.09742 -0.29998,0 -0.72031,-0.14161 -0.93406,-0.3147 z m -30.61021,47.46494 c -0.71424,-0.908 -0.28375,-1.9043 0.91692,-2.12207 0.32551,-0.059 6.90307,-0.0837 14.6168,-0.0548 l 14.02497,0.0526 0.34218,0.42266 c 0.44365,0.54797 0.43653,1.36282 -0.0159,1.81522 -0.35221,0.3522 -0.59677,0.35806 -14.93601,0.35806 H 280.2754 l -0.37106,-0.47171 z m 34.36075,0.11363 c -0.48257,-0.48256 -0.47296,-1.45179 0.0188,-1.89681 0.35431,-0.32066 0.72478,-0.34105 6.19235,-0.34105 h 5.81549 l 0.34225,0.42264 c 0.44369,0.54796 0.43659,1.3628 -0.0158,1.81522 -0.34337,0.34337 -0.59676,0.35806 -6.17652,0.35806 -5.57977,0 -5.83317,-0.0146 -6.17654,-0.35806 z"
       id="path63408"
       sodipodi:nodetypes="csccsscscscscsscssccscccsscsssscccsccssssscccssssssscccsssscccsscccscssccsscccscccsccsssssssccssscscccsssscccsscsccssscssssscccscsscssscssccccssscscsssscccccccscccsssccssccssccsssssssscccsccccssssscsssscssccssscsssccsssscccscsscsssscsssscsssccscsssccccsscsssc" />
  </g>
</svg>
