<?xml version="1.0" encoding="UTF-8" standalone="no"?>
<!-- Created with Inkscape (http://www.inkscape.org/) -->

<svg
   width="127.99998mm"
   height="128mm"
   viewBox="0 0 127.99999 128"
   version="1.1"
   id="svg82017"
   inkscape:version="1.2.1 (9c6d41e410, 2022-07-14)"
   sodipodi:docname="Tool.svg"
   xmlns:inkscape="http://www.inkscape.org/namespaces/inkscape"
   xmlns:sodipodi="http://sodipodi.sourceforge.net/DTD/sodipodi-0.dtd"
   xmlns="http://www.w3.org/2000/svg"
   xmlns:svg="http://www.w3.org/2000/svg">
  <sodipodi:namedview
     id="namedview82019"
     pagecolor="#ffffff"
     bordercolor="#000000"
     borderopacity="0.25"
     inkscape:showpageshadow="2"
     inkscape:pageopacity="0.0"
     inkscape:pagecheckerboard="0"
     inkscape:deskcolor="#d1d1d1"
     inkscape:document-units="mm"
     showgrid="false"
     showguides="true"
     inkscape:zoom="0.37282197"
     inkscape:cx="33.528067"
     inkscape:cy="233.35535"
     inkscape:window-width="1920"
     inkscape:window-height="1017"
     inkscape:window-x="1912"
     inkscape:window-y="270"
     inkscape:window-maximized="1"
     inkscape:current-layer="layer1" />
  <defs
     id="defs82014" />
  <g
     inkscape:label="Layer 1"
     inkscape:groupmode="layer"
     id="layer1"
     transform="translate(-37.811085,-140.21106)">
    <path
       id="rect1992"
       style="fill:#5c7f67;fill-opacity:1;stroke-width:0.190104;stroke-dasharray:none"
       d="M 165.81102 182.42605 L 136.8252 161.36636 L 126.31938 174.52266 L 133.21921 179.29033 L 143.31834 172.38997 L 142.12668 186.50384 L 127.82471 193.90546 L 121.74033 192.46265 L 111.51563 202.49925 L 144.3219 232.73358 L 141.24818 243.39753 L 131.33716 247.28618 L 100.53852 214.73106 L 91.31738 222.94813 L 87.553785 242.01725 L 70.665927 246.18547 L 76.754444 231.93673 L 69.436028 229.63041 L 59.281092 239.59156 L 68.942518 246.61077 L 66.76694 247.14769 L 95.757936 268.211 L 101.07647 268.211 L 104.95582 268.211 L 115.78359 268.211 L 147.81884 268.211 C 157.75571 268.2113 165.8113 260.15571 165.81102 250.21882 L 165.81102 197.93002 L 165.81102 192.07456 L 165.81102 183.15418 L 165.81102 182.42605 z " />
    <path
       id="path88007"
       style="fill:#8bab87;fill-opacity:1;stroke-width:0.190104;stroke-dasharray:none"
       d="M 55.803268 140.21106 A 17.991674 17.991674 0 0 0 37.811085 158.20118 L 37.811085 250.21882 A 17.991674 17.991674 0 0 0 55.803268 268.211 L 95.757936 268.211 L 66.76694 247.14769 L 68.942518 246.61077 L 59.281092 239.59156 L 69.436028 229.63041 L 76.754444 231.93673 L 70.665927 246.18547 L 87.553785 242.01725 L 91.31738 222.94813 L 100.53852 214.73106 L 131.33716 247.28618 L 141.24818 243.39753 L 144.3219 232.73358 L 111.51563 202.49925 L 121.74033 192.46265 L 127.82471 193.90546 L 142.12668 186.50384 L 143.31834 172.38997 L 133.21921 179.29033 L 126.31938 174.52266 L 136.8252 161.36636 L 165.81102 182.42605 L 165.81102 158.20118 A 17.991674 17.991674 0 0 0 147.81884 140.21106 L 55.803268 140.21106 z " />
    <path
       style="fill:#ecf4e7;stroke-width:0.175999;fill-opacity:1"
       d="m 73.478765,249.17468 c -2.410677,-0.29627 -5.625434,-1.26707 -6.711955,-2.0269 -0.65334,-0.45691 -1.083109,-1.61388 -0.934099,-2.5147 0.106611,-0.64445 0.521812,-1.12543 4.038533,-4.67829 4.326071,-4.37052 4.580082,-4.74555 4.161202,-6.14365 -0.250931,-0.83754 -1.207088,-1.71786 -2.034436,-1.87307 -1.266383,-0.23757 -1.72123,0.0871 -5.82321,4.15706 -3.440524,3.41364 -3.963333,3.86592 -4.691707,4.05884 -0.757064,0.20052 -0.883977,0.18406 -1.660298,-0.21545 -0.953516,-0.4907 -1.348149,-1.12454 -2.112225,-3.39257 -1.879146,-5.57796 -0.882366,-11.71912 2.713574,-16.71832 2.376552,-3.30397 6.095739,-5.79504 10.326634,-6.91667 1.542824,-0.40901 2.096605,-0.46658 4.487985,-0.46658 2.394805,0 2.942712,0.0571 4.486089,0.4678 l 1.758102,0.46781 4.181869,-4.17915 c 2.300035,-2.29853 4.181876,-4.22083 4.181876,-4.27175 0,-0.24514 -2.068108,-2.509 -9.373836,-10.26112 l -7.930412,-8.41497 -1.071834,1.04712 c -1.318368,1.28797 -1.605659,1.43889 -2.739076,1.43889 -0.800056,0 -0.972714,-0.0722 -1.577548,-0.66 -0.723811,-0.70339 -8.358897,-13.31106 -9.441201,-15.59009 -0.868737,-1.82932 -1.130171,-3.91194 -0.719148,-5.72892 0.437458,-1.93383 1.248437,-3.42801 2.587246,-4.76682 2.83106,-2.83106 6.931304,-3.56085 10.495746,-1.8681 2.279022,1.0823 14.886693,8.71739 15.590083,9.4412 0.587759,0.60483 0.659999,0.77749 0.659999,1.57755 0,1.13478 -0.150447,1.42025 -1.448647,2.74893 -0.581286,0.59492 -1.027738,1.15739 -0.992117,1.24994 0.115445,0.29989 16.291446,17.36755 16.847616,17.77629 0.29635,0.21779 0.60199,0.39599 0.67918,0.39599 0.0772,0 2.26797,-2.12871 4.86839,-4.73047 l 4.72805,-4.73048 -0.27392,-0.8575 c -0.57325,-1.79461 -0.73008,-3.00774 -0.71377,-5.52148 0.0138,-2.13442 0.0894,-2.82703 0.46179,-4.23289 2.0243,-7.64224 7.94061,-12.86903 15.74585,-13.91074 2.9396,-0.39233 6.90303,0.1988 9.50885,1.4182 1.28151,0.5997 1.71749,1.03778 1.98734,1.99694 0.35788,1.27203 0.10267,1.63976 -4.05341,5.84053 -4.05713,4.10073 -4.38332,4.55888 -4.14614,5.82321 0.15521,0.82735 1.03553,1.7835 1.87307,2.03444 1.3981,0.41888 1.77314,0.16486 6.14366,-4.16121 3.56858,-3.53229 4.0317,-3.93157 4.68564,-4.03977 0.73488,-0.12159 1.55466,0.12183 2.21889,0.65886 0.48019,0.38824 1.33017,2.36855 1.8346,4.27434 0.40392,1.526 0.46217,2.08996 0.46217,4.47409 0,2.38841 -0.0579,2.94707 -0.46535,4.48798 -1.39915,5.29157 -4.88436,9.59608 -9.70395,11.98515 -2.84917,1.41233 -4.80395,1.87513 -8.00797,1.89591 -2.51397,0.0163 -3.72688,-0.14051 -5.52203,-0.71395 l -0.85807,-0.2741 -4.15035,4.15035 c -2.2827,2.28269 -4.11416,4.18153 -4.06992,4.21966 0.0442,0.0381 4.79282,3.53772 10.55239,7.7769 l 10.47195,7.7076 4.2814,4.24215 c 2.35476,2.33318 4.63061,4.72578 5.05742,5.31689 5.84426,8.09402 0.93431,19.43254 -8.94496,20.65653 -2.30592,0.2857 -4.64623,-0.0536 -6.90583,-1.00125 -2.06932,-0.86784 -3.42875,-1.94468 -7.37061,-5.83843 -3.5273,-3.48427 -4.57471,-4.6829 -12.4745,-14.27559 -4.74314,-5.75958 -8.673684,-10.49195 -8.734536,-10.51637 -0.06086,-0.0244 -1.714125,1.56051 -3.673927,3.52206 l -3.563272,3.56646 0.465163,1.75792 c 0.407279,1.53913 0.465171,2.09744 0.465171,4.48591 0,2.37863 -0.05874,2.94971 -0.458426,4.45933 -2.139018,8.07845 -9.045822,13.6458 -17.278844,13.92792 -0.967997,0.0332 -2.03719,0.0262 -2.375994,-0.0154 z m 5.367978,-5.70861 c 2.459568,-0.76088 4.155394,-1.79091 5.820934,-3.53555 2.249248,-2.35608 3.398783,-4.92258 3.694329,-8.24807 0.154751,-1.74124 -0.130258,-3.52948 -0.928717,-5.82708 -0.590759,-1.69991 -0.630432,-1.92888 -0.442195,-2.55198 0.171507,-0.56772 3.022982,-3.49758 16.711146,-17.17057 14.51417,-14.49809 16.59496,-16.51244 17.25585,-16.70485 0.69825,-0.20329 0.85719,-0.17865 2.24226,0.34747 2.9621,1.12517 5.67559,1.32922 8.3823,0.63034 4.53927,-1.17204 8.07002,-4.57601 9.4628,-9.123 0.41689,-1.361 0.65551,-3.7797 0.47029,-4.76698 l -0.12296,-0.65547 -2.34323,2.2886 c -3.02475,2.95423 -4.26241,3.59166 -6.97988,3.59485 -4.79913,0.005 -8.46518,-4.25782 -7.72236,-8.98077 0.33184,-2.10986 0.94193,-3.1054 3.52182,-5.74687 2.2633,-2.31732 2.30652,-2.37603 1.83606,-2.49411 -0.26499,-0.0665 -1.2258,-0.0721 -2.13515,-0.0123 -4.0945,0.26896 -7.9841,2.53607 -10.20094,5.94578 -1.35745,2.08789 -1.95548,3.96162 -2.09995,6.57955 -0.10813,1.95956 0.18692,3.6391 1.07297,6.10772 0.47532,1.32429 0.47989,1.37327 0.19743,2.11199 -0.23581,0.61672 -3.31779,3.78198 -16.702991,17.15431 -14.270976,14.25724 -16.509747,16.42595 -17.148546,16.61181 -0.680128,0.19788 -0.869728,0.16645 -2.551991,-0.42305 -2.326184,-0.81513 -3.883477,-1.07085 -5.67672,-0.93218 -7.184543,0.55561 -12.411466,6.20201 -12.419156,13.41585 -6.65e-4,0.68567 0.05089,1.29885 0.114647,1.36264 0.06379,0.0638 1.174885,-0.91825 2.469107,-2.1823 2.634907,-2.57348 3.658389,-3.19659 5.730548,-3.48884 1.610548,-0.22715 3.07023,0.008 4.594822,0.74036 4.065341,1.95273 5.627969,7.09039 3.346965,11.00428 -0.263211,0.45164 -1.461365,1.82389 -2.662566,3.04945 -1.755341,1.79094 -2.120686,2.24702 -1.861447,2.32375 0.71843,0.21265 3.865657,-0.0508 5.074521,-0.42476 z m 56.426987,0.35707 c 4.48291,-0.85018 7.31156,-5.53846 5.96736,-9.89048 -0.56047,-1.81459 -1.48946,-2.98614 -5.57106,-7.0257 -3.37788,-3.34308 -4.29863,-4.13937 -7.54349,-6.52376 -2.03278,-1.49373 -4.45675,-3.27698 -5.38658,-3.96277 l -1.6906,-1.24689 -4.42882,4.43138 -4.42883,4.43138 4.3275,5.27526 c 5.78982,7.05784 11.17457,12.52195 13.48245,13.68117 1.82779,0.91808 3.45679,1.17466 5.27207,0.83041 z m -2.7528,-5.80387 c -0.44004,-0.21782 -2.82456,-2.47414 -6.27734,-5.93984 -4.8167,-4.83472 -5.58424,-5.67761 -5.68997,-6.24858 -0.46452,-2.5085 1.87675,-4.15338 3.97448,-2.7923 1.25907,0.81692 11.18839,10.90216 11.52168,11.7026 0.56499,1.35687 -0.2479,3.06014 -1.64574,3.4484 -0.89108,0.2475 -1.07222,0.23111 -1.88311,-0.17028 z m -19.64575,-22.06092 3.92962,-3.93254 -3.26487,-2.40344 c -1.79568,-1.32189 -3.32787,-2.40344 -3.40487,-2.40344 -0.077,0 -1.57889,1.44539 -3.33752,3.21198 l -3.1975,3.21199 2.58237,3.12399 c 1.42032,1.7182 2.62306,3.12398 2.67277,3.12398 0.0497,0 1.85871,-1.76963 4.02,-3.93252 z m -17.136796,-16.83109 1.925704,-1.93168 -0.768758,-0.65802 c -0.422811,-0.36192 -4.649741,-4.77924 -9.393181,-9.81627 -4.743433,-5.03703 -8.89481,-9.44494 -9.225285,-9.79535 -1.214957,-1.28827 -1.100983,-2.6902 0.337107,-4.14669 0.76657,-0.77637 0.888806,-0.97923 0.672771,-1.11652 -0.145199,-0.0923 -2.84318,-1.71505 -5.995521,-3.60615 -4.857002,-2.91375 -5.867233,-3.45445 -6.620957,-3.54371 -2.60236,-0.30821 -4.877896,1.96732 -4.569691,4.56968 0.08927,0.75373 0.629972,1.76396 3.543715,6.62096 1.891107,3.15234 3.511873,5.84718 3.601707,5.98855 0.131196,0.20645 0.370607,0.0593 1.216986,-0.748 1.200642,-1.14521 1.942939,-1.32914 3.242323,-0.80338 0.408196,0.16516 14.959399,15.38178 18.781697,19.64057 0.629028,0.70086 1.184631,1.27506 1.234687,1.27599 0.05002,6.7e-4 0.957561,-0.86755 2.016696,-1.92998 z"
       id="path67807" />
  </g>
</svg>
